# xmcd CD database file generated by OrangeCD 6.3
#
# Track frame offsets:
#	150
#	15223
#	31170
#	48356
#	67064
#	82742
#	98620
#	111295
#	126734
#	144295
#	161794
#	176607
#	193450
#	207756
#	221209
#	232765
#
# Disc length: 3316 seconds
#
# Revision: 1
# Processed by: cddbd v1.5.2PL0 Copyright (c) Steve Scherf et al.
# Submitted via: OrangeCD 6.3
#
DISCID=db0cf210
DTITLE=The Dean Brothers - 1-2-3 Bears Go Country!
DYEAR=1999
DGENRE=Country
TTITLE0=3 Bears [Radio Mix]
TTITLE1=I Forgot To Remember
TTITLE2=The Hard Way
TTITLE3=See You In My Dreams
TTITLE4=3 Words
TTITLE5=You're The One
TTITLE6=Cry Cry
TTITLE7=No Future In The Past
TTITLE8=Honkytonk Angel
TTITLE9=Doctor
TTITLE10=Hank
TTITLE11=Here Today
TTITLE12=Last Night
TTITLE13=Sometimes She Will
TTITLE14=Show Down [Bonus Track]
TTITLE15=3 Bears [Dance Mix]
EXTD=
EXTT0=
EXTT1=
EXTT2=
EXTT3=
EXTT4=
EXTT5=
EXTT6=
EXTT7=
EXTT8=
EXTT9=
EXTT10=
EXTT11=
EXTT12=
EXTT13=
EXTT14=
EXTT15=
PLAYORDER=
